<svg width="50" height="25" viewBox="0 0 50 25" fill="none" xmlns="http://www.w3.org/2000/svg">
<path d="M0 2.5C0 1.11929 1.11929 0 2.5 0H47.5C48.8807 0 50 1.11929 50 2.5V2.5C50 3.88071 48.8807 5 47.5 5H2.5C1.11929 5 0 3.88071 0 2.5V2.5Z" fill="#005E67"/>
<path d="M10 12.5C10 11.1193 11.1193 10 12.5 10H47.5C48.8807 10 50 11.1193 50 12.5V12.5C50 13.8807 48.8807 15 47.5 15H12.5C11.1193 15 10 13.8807 10 12.5V12.5Z" fill="#005E67"/>
<path d="M5 22.5C5 21.1193 6.67893 20 8.75 20H46.25C48.3211 20 50 21.1193 50 22.5V22.5C50 23.8807 48.3211 25 46.25 25H8.75C6.67893 25 5 23.8807 5 22.5V22.5Z" fill="#005E67"/>
</svg>
